<?xml version="1.0" encoding="UTF-8"?>
<svg id="Layer_2" data-name="Layer 2" xmlns="http://www.w3.org/2000/svg" viewBox="0 0 43.98 43.98">
  <defs>
    <style>
      .cls-1 {
        fill: #fff;
        fill-rule: evenodd;
      }

      .cls-1, .cls-2 {
        stroke-width: 0px;
      }
    </style>
  </defs>
  <g id="Layer_1-2" data-name="Layer 1">
    <g>
      <circle class="cls-2" cx="21.99" cy="21.99" r="21.99"/>
      <path class="cls-1" d="m15.52,7.98h12.93c4.16,0,7.57,3.42,7.57,7.57v12.87c0,4.16-3.42,7.57-7.57,7.57h-12.93c-4.16,0-7.57-3.42-7.57-7.57v-12.87c0-4.16,3.42-7.57,7.57-7.57h0Zm14.01,4.89h0c.87,0,1.61.74,1.61,1.61h0c0,.87-.74,1.61-1.61,1.61h0c-.94,0-1.61-.74-1.61-1.61h0c0-.87.67-1.61,1.61-1.61h0Zm-7.57,1.47h.07c4.16,0,7.64,3.48,7.64,7.64h0c0,4.22-3.48,7.64-7.64,7.64h-.07c-4.16,0-7.57-3.42-7.57-7.64h0c0-4.16,3.42-7.64,7.57-7.64h0Zm0,2.61h.07c2.75,0,5.03,2.28,5.03,5.03h0c0,2.81-2.28,5.09-5.03,5.09h-.07c-2.75,0-5.03-2.28-5.03-5.09h0c0-2.75,2.28-5.03,5.03-5.03h0Zm-6.37-6.57h12.8c2.88,0,5.23,2.35,5.23,5.23v12.73c0,2.88-2.35,5.23-5.23,5.23h-12.8c-2.88,0-5.23-2.35-5.23-5.23v-12.73c0-2.88,2.35-5.23,5.23-5.23h0Z"/>
    </g>
  </g>
</svg>