<?xml version="1.0" encoding="UTF-8"?>
<svg id="Layer_2" data-name="Layer 2" xmlns="http://www.w3.org/2000/svg" viewBox="0 0 43.98 43.98">
  <defs>
    <style>
      .cls-1 {
        fill: #fff;
        fill-rule: evenodd;
      }

      .cls-1, .cls-2 {
        stroke-width: 0px;
      }
    </style>
  </defs>
  <g id="Layer_1-2" data-name="Layer 1">
    <g>
      <circle class="cls-2" cx="21.99" cy="21.99" r="21.99" transform="translate(-3.24 40.17) rotate(-80.78)"/>
      <path class="cls-1" d="m22.23,18.08c-1.08-5.71,5.78-9.1,9.82-4.98,0,0,1.81-.51,3.39-1.52,0,0-.58,1.95-2.53,3.18,0,0,2.17-.29,3.11-.87,0,0-.94,1.95-2.67,2.67.94,13.07-13.14,21.02-24.56,14.52,0,0,5.63.29,8.02-2.46,0,0-3.47.29-5.2-3.9,0,0,1.3.51,2.6-.14,0,0-4.04-.65-4.41-5.49,0,0,1.3,1.01,2.74.65,0,0-4.48-2.67-1.95-7.51,0,0,4.77,6.07,11.63,5.85h0Z"/>
    </g>
  </g>
</svg>